<mxfile host="Electron" agent="Mozilla/5.0 (Macintosh; Intel Mac OS X 10_15_7) AppleWebKit/537.36 (KHTML, like Gecko) draw.io/26.0.9 Chrome/128.0.6613.186 Electron/32.2.5 Safari/537.36" version="26.0.9" pages="3">
  <diagram name="PA v2" id="YjF4hh2LZT01VTxzqMfP">
    <mxGraphModel dx="1103" dy="657" grid="1" gridSize="10" guides="1" tooltips="1" connect="1" arrows="1" fold="1" page="1" pageScale="1" pageWidth="1000" pageHeight="1000" math="0" shadow="0">
      <root>
        <mxCell id="EyUW4NWDtqSU37pNdS5K-0" />
        <mxCell id="EyUW4NWDtqSU37pNdS5K-1" parent="EyUW4NWDtqSU37pNdS5K-0" />
        <mxCell id="EyUW4NWDtqSU37pNdS5K-2" value="" style="rounded=0;whiteSpace=wrap;html=1;strokeColor=none;fillColor=none;movable=0;resizable=0;rotatable=0;deletable=0;editable=0;locked=1;connectable=0;" parent="EyUW4NWDtqSU37pNdS5K-1" vertex="1">
          <mxGeometry x="640" y="80" width="720" height="480" as="geometry" />
        </mxCell>
        <mxCell id="EyUW4NWDtqSU37pNdS5K-3" value="&lt;b&gt;Juvix&amp;nbsp;&lt;/b&gt;&lt;b&gt;RM&lt;/b&gt;&lt;b&gt;&amp;nbsp;Interface&lt;/b&gt;" style="rounded=1;whiteSpace=wrap;html=1;dashed=1;labelPosition=center;verticalLabelPosition=top;align=center;verticalAlign=bottom;fillColor=#f5f5f5;fontColor=#333333;strokeColor=#666666;" parent="EyUW4NWDtqSU37pNdS5K-1" vertex="1">
          <mxGeometry x="750" y="160" width="140" height="160" as="geometry" />
        </mxCell>
        <mxCell id="EyUW4NWDtqSU37pNdS5K-4" value="&lt;b&gt;Juvix App&lt;/b&gt;" style="rounded=1;whiteSpace=wrap;html=1;dashed=1;labelPosition=center;verticalLabelPosition=bottom;align=center;verticalAlign=top;fillColor=#f8cecc;strokeColor=#b85450;" parent="EyUW4NWDtqSU37pNdS5K-1" vertex="1">
          <mxGeometry x="750" y="360" width="140" height="160" as="geometry" />
        </mxCell>
        <mxCell id="EyUW4NWDtqSU37pNdS5K-5" value="&lt;b&gt;Protocol Adapter (PA) Contract&lt;/b&gt;" style="shape=note;whiteSpace=wrap;html=1;backgroundOutline=1;darkOpacity=0.05;size=17;labelPosition=center;verticalLabelPosition=top;align=center;verticalAlign=bottom;fillColor=#f8cecc;strokeColor=#b85450;" parent="EyUW4NWDtqSU37pNdS5K-1" vertex="1">
          <mxGeometry x="1090" y="160" width="260" height="180" as="geometry" />
        </mxCell>
        <mxCell id="EyUW4NWDtqSU37pNdS5K-6" value="" style="endArrow=none;dashed=1;html=1;dashPattern=1 3;strokeWidth=2;rounded=0;" parent="EyUW4NWDtqSU37pNdS5K-1" edge="1">
          <mxGeometry width="50" height="50" relative="1" as="geometry">
            <mxPoint x="1000" y="400" as="sourcePoint" />
            <mxPoint x="1000" y="150" as="targetPoint" />
          </mxGeometry>
        </mxCell>
        <mxCell id="EyUW4NWDtqSU37pNdS5K-7" value="&lt;h1&gt;EVM&lt;/h1&gt;" style="text;html=1;align=center;verticalAlign=middle;resizable=0;points=[];autosize=1;strokeColor=none;fillColor=none;" parent="EyUW4NWDtqSU37pNdS5K-1" vertex="1">
          <mxGeometry x="1180" y="70" width="80" height="70" as="geometry" />
        </mxCell>
        <mxCell id="EyUW4NWDtqSU37pNdS5K-8" value="&lt;h1&gt;Off-chain&lt;/h1&gt;" style="text;html=1;align=center;verticalAlign=middle;resizable=0;points=[];autosize=1;strokeColor=none;fillColor=none;" parent="EyUW4NWDtqSU37pNdS5K-1" vertex="1">
          <mxGeometry x="755" y="70" width="130" height="70" as="geometry" />
        </mxCell>
        <mxCell id="EyUW4NWDtqSU37pNdS5K-9" value="Cairo Backend" style="rounded=1;whiteSpace=wrap;html=1;" parent="EyUW4NWDtqSU37pNdS5K-1" vertex="1">
          <mxGeometry x="760" y="270" width="120" height="40" as="geometry" />
        </mxCell>
        <mxCell id="EyUW4NWDtqSU37pNdS5K-10" value="Transparent Backend" style="rounded=1;whiteSpace=wrap;html=1;fontColor=#B3B3B3;strokeColor=#B3B3B3;" parent="EyUW4NWDtqSU37pNdS5K-1" vertex="1">
          <mxGeometry x="760" y="170" width="120" height="40" as="geometry" />
        </mxCell>
        <mxCell id="EyUW4NWDtqSU37pNdS5K-11" style="edgeStyle=orthogonalEdgeStyle;rounded=0;orthogonalLoop=1;jettySize=auto;html=1;entryX=0;entryY=0.5;entryDx=0;entryDy=0;exitX=1;exitY=0.5;exitDx=0;exitDy=0;" parent="EyUW4NWDtqSU37pNdS5K-1" source="EyUW4NWDtqSU37pNdS5K-34" target="EyUW4NWDtqSU37pNdS5K-21" edge="1">
          <mxGeometry relative="1" as="geometry">
            <mxPoint x="660" y="290" as="sourcePoint" />
            <mxPoint x="1120" y="219.5" as="targetPoint" />
          </mxGeometry>
        </mxCell>
        <mxCell id="EyUW4NWDtqSU37pNdS5K-12" value="ERC20&lt;br&gt;Contract" style="shape=note;whiteSpace=wrap;html=1;backgroundOutline=1;darkOpacity=0.05;size=10;fillColor=#f8cecc;strokeColor=#b85450;" parent="EyUW4NWDtqSU37pNdS5K-1" vertex="1">
          <mxGeometry x="1230" y="600" width="60" height="80" as="geometry" />
        </mxCell>
        <mxCell id="EyUW4NWDtqSU37pNdS5K-13" style="edgeStyle=orthogonalEdgeStyle;rounded=0;orthogonalLoop=1;jettySize=auto;html=1;exitX=0.5;exitY=1;exitDx=0;exitDy=0;entryX=0.5;entryY=0;entryDx=0;entryDy=0;entryPerimeter=0;" parent="EyUW4NWDtqSU37pNdS5K-1" source="EyUW4NWDtqSU37pNdS5K-20" target="EyUW4NWDtqSU37pNdS5K-37" edge="1">
          <mxGeometry relative="1" as="geometry">
            <mxPoint x="1290" y="500" as="sourcePoint" />
            <mxPoint x="1250" y="400" as="targetPoint" />
          </mxGeometry>
        </mxCell>
        <mxCell id="EyUW4NWDtqSU37pNdS5K-14" value="7. call&amp;nbsp;&lt;font face=&quot;Courier New&quot;&gt;wrap&lt;/font&gt;" style="edgeLabel;html=1;align=center;verticalAlign=middle;resizable=0;points=[];" parent="EyUW4NWDtqSU37pNdS5K-13" vertex="1" connectable="0">
          <mxGeometry x="0.0986" y="2" relative="1" as="geometry">
            <mxPoint x="-2" y="2" as="offset" />
          </mxGeometry>
        </mxCell>
        <mxCell id="EyUW4NWDtqSU37pNdS5K-15" style="edgeStyle=orthogonalEdgeStyle;rounded=0;orthogonalLoop=1;jettySize=auto;html=1;entryX=1.01;entryY=0.497;entryDx=0;entryDy=0;entryPerimeter=0;exitX=0;exitY=0.5;exitDx=0;exitDy=0;exitPerimeter=0;" parent="EyUW4NWDtqSU37pNdS5K-1" source="EyUW4NWDtqSU37pNdS5K-37" target="EyUW4NWDtqSU37pNdS5K-12" edge="1">
          <mxGeometry relative="1" as="geometry">
            <mxPoint x="1220" y="440" as="sourcePoint" />
            <mxPoint x="1260" y="420" as="targetPoint" />
          </mxGeometry>
        </mxCell>
        <mxCell id="EyUW4NWDtqSU37pNdS5K-16" value="&lt;font&gt;8. call&lt;font style=&quot;&quot;&gt;&lt;span style=&quot;background-color: light-dark(#ffffff, var(--ge-dark-color, #121212)); color: light-dark(rgb(0, 0, 0), rgb(255, 255, 255));&quot;&gt;&lt;br&gt;&amp;nbsp;&lt;/span&gt;&lt;/font&gt;&lt;/font&gt;&lt;span style=&quot;background-color: light-dark(#ffffff, var(--ge-dark-color, #121212)); color: light-dark(rgb(0, 0, 0), rgb(255, 255, 255));&quot;&gt;&lt;font style=&quot;font-size: 10px;&quot; face=&quot;Courier New&quot;&gt;transferFrom&lt;/font&gt;&lt;/span&gt;" style="edgeLabel;html=1;align=center;verticalAlign=middle;resizable=0;points=[];" parent="EyUW4NWDtqSU37pNdS5K-15" vertex="1" connectable="0">
          <mxGeometry x="0.134" y="1" relative="1" as="geometry">
            <mxPoint x="9" y="-1" as="offset" />
          </mxGeometry>
        </mxCell>
        <mxCell id="EyUW4NWDtqSU37pNdS5K-17" style="edgeStyle=orthogonalEdgeStyle;rounded=0;orthogonalLoop=1;jettySize=auto;html=1;exitX=0.5;exitY=0;exitDx=0;exitDy=0;entryX=0.75;entryY=1;entryDx=0;entryDy=0;" parent="EyUW4NWDtqSU37pNdS5K-1" source="EyUW4NWDtqSU37pNdS5K-20" target="EyUW4NWDtqSU37pNdS5K-25" edge="1">
          <mxGeometry relative="1" as="geometry" />
        </mxCell>
        <mxCell id="EyUW4NWDtqSU37pNdS5K-18" value="6. update" style="edgeLabel;html=1;align=center;verticalAlign=middle;resizable=0;points=[];" parent="EyUW4NWDtqSU37pNdS5K-17" vertex="1" connectable="0">
          <mxGeometry x="-0.1778" y="-2" relative="1" as="geometry">
            <mxPoint x="-2" as="offset" />
          </mxGeometry>
        </mxCell>
        <mxCell id="EyUW4NWDtqSU37pNdS5K-19" style="edgeStyle=orthogonalEdgeStyle;rounded=0;orthogonalLoop=1;jettySize=auto;html=1;entryX=0;entryY=0.5;entryDx=0;entryDy=0;exitX=1;exitY=0.5;exitDx=0;exitDy=0;" parent="EyUW4NWDtqSU37pNdS5K-1" source="EyUW4NWDtqSU37pNdS5K-21" target="EyUW4NWDtqSU37pNdS5K-20" edge="1">
          <mxGeometry relative="1" as="geometry">
            <mxPoint x="1100" y="498" as="sourcePoint" />
          </mxGeometry>
        </mxCell>
        <mxCell id="EyUW4NWDtqSU37pNdS5K-20" value="execute(tx)" style="rounded=0;whiteSpace=wrap;html=1;" parent="EyUW4NWDtqSU37pNdS5K-1" vertex="1">
          <mxGeometry x="1240" y="310" width="80" height="20" as="geometry" />
        </mxCell>
        <mxCell id="EyUW4NWDtqSU37pNdS5K-21" value="verify(tx)" style="rounded=0;whiteSpace=wrap;html=1;" parent="EyUW4NWDtqSU37pNdS5K-1" vertex="1">
          <mxGeometry x="1120" y="310" width="80" height="20" as="geometry" />
        </mxCell>
        <mxCell id="EyUW4NWDtqSU37pNdS5K-22" style="edgeStyle=orthogonalEdgeStyle;rounded=0;orthogonalLoop=1;jettySize=auto;html=1;entryX=0.25;entryY=1;entryDx=0;entryDy=0;exitX=0.5;exitY=0;exitDx=0;exitDy=0;" parent="EyUW4NWDtqSU37pNdS5K-1" source="EyUW4NWDtqSU37pNdS5K-21" target="EyUW4NWDtqSU37pNdS5K-25" edge="1">
          <mxGeometry relative="1" as="geometry">
            <mxPoint x="1220" y="508" as="sourcePoint" />
            <mxPoint x="1250" y="361" as="targetPoint" />
          </mxGeometry>
        </mxCell>
        <mxCell id="EyUW4NWDtqSU37pNdS5K-23" value="5. check" style="edgeLabel;html=1;align=center;verticalAlign=middle;resizable=0;points=[];" parent="EyUW4NWDtqSU37pNdS5K-22" vertex="1" connectable="0">
          <mxGeometry x="-0.2667" y="1" relative="1" as="geometry">
            <mxPoint x="1" y="-2" as="offset" />
          </mxGeometry>
        </mxCell>
        <mxCell id="EyUW4NWDtqSU37pNdS5K-24" value="" style="group" parent="EyUW4NWDtqSU37pNdS5K-1" vertex="1" connectable="0">
          <mxGeometry x="1100" y="200" width="240" height="80" as="geometry" />
        </mxCell>
        <mxCell id="EyUW4NWDtqSU37pNdS5K-25" value="RM State" style="rounded=1;whiteSpace=wrap;html=1;dashed=1;labelPosition=center;verticalLabelPosition=top;align=center;verticalAlign=bottom;" parent="EyUW4NWDtqSU37pNdS5K-24" vertex="1">
          <mxGeometry width="240" height="80" as="geometry" />
        </mxCell>
        <mxCell id="EyUW4NWDtqSU37pNdS5K-26" value="Nullifier Set" style="shape=cylinder3;whiteSpace=wrap;html=1;boundedLbl=1;backgroundOutline=1;size=15;" parent="EyUW4NWDtqSU37pNdS5K-24" vertex="1">
          <mxGeometry x="140" y="5" width="80" height="70" as="geometry" />
        </mxCell>
        <mxCell id="EyUW4NWDtqSU37pNdS5K-27" value="Commitment Accumulator" style="shape=cylinder3;whiteSpace=wrap;html=1;boundedLbl=1;backgroundOutline=1;size=15;" parent="EyUW4NWDtqSU37pNdS5K-24" vertex="1">
          <mxGeometry x="20" y="5" width="80" height="70" as="geometry" />
        </mxCell>
        <mxCell id="EyUW4NWDtqSU37pNdS5K-28" value="2. prove" style="edgeStyle=orthogonalEdgeStyle;rounded=0;orthogonalLoop=1;jettySize=auto;html=1;exitX=0.5;exitY=0;exitDx=0;exitDy=0;entryX=0.5;entryY=1;entryDx=0;entryDy=0;" parent="EyUW4NWDtqSU37pNdS5K-1" source="EyUW4NWDtqSU37pNdS5K-30" target="EyUW4NWDtqSU37pNdS5K-9" edge="1">
          <mxGeometry relative="1" as="geometry">
            <mxPoint as="offset" />
          </mxGeometry>
        </mxCell>
        <mxCell id="EyUW4NWDtqSU37pNdS5K-29" value="Resource Logics" style="rounded=1;whiteSpace=wrap;html=1;" parent="EyUW4NWDtqSU37pNdS5K-1" vertex="1">
          <mxGeometry x="760" y="420" width="120" height="40" as="geometry" />
        </mxCell>
        <mxCell id="EyUW4NWDtqSU37pNdS5K-30" value="&lt;div&gt;&lt;span style=&quot;background-color: transparent; color: light-dark(rgb(0, 0, 0), rgb(255, 255, 255));&quot;&gt;Transaction Functions&lt;/span&gt;&lt;br&gt;&lt;/div&gt;" style="rounded=1;whiteSpace=wrap;html=1;" parent="EyUW4NWDtqSU37pNdS5K-1" vertex="1">
          <mxGeometry x="760" y="370" width="120" height="40" as="geometry" />
        </mxCell>
        <mxCell id="EyUW4NWDtqSU37pNdS5K-31" value="User" style="shape=umlActor;verticalLabelPosition=bottom;verticalAlign=top;html=1;outlineConnect=0;" parent="EyUW4NWDtqSU37pNdS5K-1" vertex="1">
          <mxGeometry x="985" y="410" width="30" height="60" as="geometry" />
        </mxCell>
        <mxCell id="EyUW4NWDtqSU37pNdS5K-32" style="edgeStyle=orthogonalEdgeStyle;rounded=0;orthogonalLoop=1;jettySize=auto;html=1;entryX=0;entryY=0.5;entryDx=0;entryDy=0;jumpStyle=none;exitX=1;exitY=0.5;exitDx=0;exitDy=0;" parent="EyUW4NWDtqSU37pNdS5K-1" source="EyUW4NWDtqSU37pNdS5K-3" target="EyUW4NWDtqSU37pNdS5K-25" edge="1">
          <mxGeometry relative="1" as="geometry">
            <mxPoint x="960" y="210" as="sourcePoint" />
            <Array as="points">
              <mxPoint x="890" y="240" />
            </Array>
          </mxGeometry>
        </mxCell>
        <mxCell id="EyUW4NWDtqSU37pNdS5K-33" value="3. check" style="edgeLabel;html=1;align=center;verticalAlign=middle;resizable=0;points=[];" parent="EyUW4NWDtqSU37pNdS5K-32" vertex="1" connectable="0">
          <mxGeometry x="0.1594" relative="1" as="geometry">
            <mxPoint x="-92" as="offset" />
          </mxGeometry>
        </mxCell>
        <mxCell id="EyUW4NWDtqSU37pNdS5K-34" value="Transaction Object" style="rounded=1;whiteSpace=wrap;html=1;" parent="EyUW4NWDtqSU37pNdS5K-1" vertex="1">
          <mxGeometry x="940" y="300" width="120" height="40" as="geometry" />
        </mxCell>
        <mxCell id="EyUW4NWDtqSU37pNdS5K-35" style="edgeStyle=orthogonalEdgeStyle;rounded=0;orthogonalLoop=1;jettySize=auto;html=1;entryX=1;entryY=0.75;entryDx=0;entryDy=0;" parent="EyUW4NWDtqSU37pNdS5K-1" source="EyUW4NWDtqSU37pNdS5K-31" target="EyUW4NWDtqSU37pNdS5K-30" edge="1">
          <mxGeometry relative="1" as="geometry">
            <mxPoint x="940" y="380" as="targetPoint" />
            <mxPoint x="890" y="380" as="sourcePoint" />
            <Array as="points">
              <mxPoint x="920" y="440" />
              <mxPoint x="920" y="400" />
            </Array>
          </mxGeometry>
        </mxCell>
        <mxCell id="EyUW4NWDtqSU37pNdS5K-36" value="1. call" style="edgeLabel;html=1;align=center;verticalAlign=middle;resizable=0;points=[];" parent="EyUW4NWDtqSU37pNdS5K-35" vertex="1" connectable="0">
          <mxGeometry x="-0.1335" y="2" relative="1" as="geometry">
            <mxPoint x="-4" y="-22" as="offset" />
          </mxGeometry>
        </mxCell>
        <mxCell id="EyUW4NWDtqSU37pNdS5K-37" value="Resource&lt;br&gt;Wrapper&lt;br&gt;Contract" style="shape=note;whiteSpace=wrap;html=1;backgroundOutline=1;darkOpacity=0.05;size=10;fillColor=#fff2cc;strokeColor=#d6b656;" parent="EyUW4NWDtqSU37pNdS5K-1" vertex="1">
          <mxGeometry x="1250" y="400" width="60" height="80" as="geometry" />
        </mxCell>
        <mxCell id="EyUW4NWDtqSU37pNdS5K-38" value="Projection&lt;br&gt;Functions" style="rounded=1;whiteSpace=wrap;html=1;" parent="EyUW4NWDtqSU37pNdS5K-1" vertex="1">
          <mxGeometry x="760" y="470" width="120" height="40" as="geometry" />
        </mxCell>
        <mxCell id="EyUW4NWDtqSU37pNdS5K-39" value="RISC Zero Backend" style="rounded=1;whiteSpace=wrap;html=1;fontColor=#B3B3B3;strokeColor=#B3B3B3;" parent="EyUW4NWDtqSU37pNdS5K-1" vertex="1">
          <mxGeometry x="760" y="220" width="120" height="40" as="geometry" />
        </mxCell>
        <mxCell id="EyUW4NWDtqSU37pNdS5K-40" style="edgeStyle=orthogonalEdgeStyle;rounded=0;orthogonalLoop=1;jettySize=auto;html=1;entryX=0;entryY=0.5;entryDx=0;entryDy=0;entryPerimeter=0;" parent="EyUW4NWDtqSU37pNdS5K-1" source="EyUW4NWDtqSU37pNdS5K-31" target="EyUW4NWDtqSU37pNdS5K-12" edge="1">
          <mxGeometry relative="1" as="geometry">
            <mxPoint x="1070" y="330" as="sourcePoint" />
            <mxPoint x="1130" y="330" as="targetPoint" />
          </mxGeometry>
        </mxCell>
        <mxCell id="EyUW4NWDtqSU37pNdS5K-41" value="0. approve&lt;br&gt;&lt;font style=&quot;font-size: 10px;&quot; face=&quot;Courier New&quot;&gt;Resource&lt;br&gt;Wrapper&lt;/font&gt;" style="edgeLabel;html=1;align=center;verticalAlign=middle;resizable=0;points=[];" parent="EyUW4NWDtqSU37pNdS5K-40" vertex="1" connectable="0">
          <mxGeometry x="-0.2141" relative="1" as="geometry">
            <mxPoint x="5" as="offset" />
          </mxGeometry>
        </mxCell>
        <mxCell id="EyUW4NWDtqSU37pNdS5K-42" value="" style="endArrow=none;html=1;rounded=0;edgeStyle=orthogonalEdgeStyle;entryX=0;entryY=0.5;entryDx=0;entryDy=0;exitX=1;exitY=0.25;exitDx=0;exitDy=0;" parent="EyUW4NWDtqSU37pNdS5K-1" source="EyUW4NWDtqSU37pNdS5K-30" target="EyUW4NWDtqSU37pNdS5K-34" edge="1">
          <mxGeometry width="50" height="50" relative="1" as="geometry">
            <mxPoint x="1060" y="400" as="sourcePoint" />
            <mxPoint x="1110" y="350" as="targetPoint" />
            <Array as="points">
              <mxPoint x="920" y="380" />
              <mxPoint x="920" y="320" />
            </Array>
          </mxGeometry>
        </mxCell>
        <mxCell id="EyUW4NWDtqSU37pNdS5K-43" value="4. send" style="edgeLabel;html=1;align=center;verticalAlign=middle;resizable=0;points=[];" parent="EyUW4NWDtqSU37pNdS5K-42" vertex="1" connectable="0">
          <mxGeometry x="0.1537" y="1" relative="1" as="geometry">
            <mxPoint y="-2" as="offset" />
          </mxGeometry>
        </mxCell>
        <mxCell id="wzaC1apAyD-U7l_l7gt_-2" value="ERC20&lt;div&gt;Resource&lt;/div&gt;" style="rounded=1;whiteSpace=wrap;html=1;" vertex="1" parent="EyUW4NWDtqSU37pNdS5K-1">
          <mxGeometry x="800" y="600" width="120" height="40" as="geometry" />
        </mxCell>
        <mxCell id="wzaC1apAyD-U7l_l7gt_-3" value="Wrapper Contract Resource" style="rounded=1;whiteSpace=wrap;html=1;" vertex="1" parent="EyUW4NWDtqSU37pNdS5K-1">
          <mxGeometry x="790" y="680" width="120" height="40" as="geometry" />
        </mxCell>
      </root>
    </mxGraphModel>
  </diagram>
  <diagram id="tM9kfIp5Qyka0k5oFpX9" name="PA v1">
    <mxGraphModel dx="954" dy="674" grid="1" gridSize="10" guides="1" tooltips="1" connect="1" arrows="1" fold="1" page="1" pageScale="1" pageWidth="1000" pageHeight="1000" math="0" shadow="0">
      <root>
        <mxCell id="0" />
        <mxCell id="1" parent="0" />
        <mxCell id="M3dZQKaOegjF9fxwDLkP-36" value="" style="rounded=0;whiteSpace=wrap;html=1;strokeColor=none;fillColor=none;movable=0;resizable=0;rotatable=0;deletable=0;editable=0;locked=1;connectable=0;" parent="1" vertex="1">
          <mxGeometry x="640" y="80" width="720" height="480" as="geometry" />
        </mxCell>
        <mxCell id="M3dZQKaOegjF9fxwDLkP-12" value="&lt;b&gt;Juvix&amp;nbsp;&lt;/b&gt;&lt;b&gt;RM&lt;/b&gt;&lt;b&gt;&amp;nbsp;Interface&lt;/b&gt;" style="rounded=1;whiteSpace=wrap;html=1;dashed=1;labelPosition=center;verticalLabelPosition=top;align=center;verticalAlign=bottom;" parent="1" vertex="1">
          <mxGeometry x="750" y="160" width="140" height="160" as="geometry" />
        </mxCell>
        <mxCell id="X1gRVMsdoYetH-ZWvzMt-8" value="&lt;b&gt;Juvix App&lt;/b&gt;" style="rounded=1;whiteSpace=wrap;html=1;dashed=1;labelPosition=center;verticalLabelPosition=bottom;align=center;verticalAlign=top;" parent="1" vertex="1">
          <mxGeometry x="750" y="360" width="140" height="160" as="geometry" />
        </mxCell>
        <mxCell id="Yuy0NbO3R7iWnkuzjXzV-1" value="&lt;b&gt;Protocol Adapter (PA) Contract&lt;/b&gt;" style="shape=note;whiteSpace=wrap;html=1;backgroundOutline=1;darkOpacity=0.05;size=17;labelPosition=center;verticalLabelPosition=top;align=center;verticalAlign=bottom;" parent="1" vertex="1">
          <mxGeometry x="1090" y="160" width="260" height="180" as="geometry" />
        </mxCell>
        <mxCell id="X1gRVMsdoYetH-ZWvzMt-2" value="" style="endArrow=none;dashed=1;html=1;dashPattern=1 3;strokeWidth=2;rounded=0;" parent="1" edge="1">
          <mxGeometry width="50" height="50" relative="1" as="geometry">
            <mxPoint x="1000" y="400" as="sourcePoint" />
            <mxPoint x="1000" y="150" as="targetPoint" />
          </mxGeometry>
        </mxCell>
        <mxCell id="X1gRVMsdoYetH-ZWvzMt-3" value="&lt;h1&gt;EVM&lt;/h1&gt;" style="text;html=1;align=center;verticalAlign=middle;resizable=0;points=[];autosize=1;strokeColor=none;fillColor=none;" parent="1" vertex="1">
          <mxGeometry x="1180" y="70" width="80" height="70" as="geometry" />
        </mxCell>
        <mxCell id="X1gRVMsdoYetH-ZWvzMt-4" value="&lt;h1&gt;Off-chain&lt;/h1&gt;" style="text;html=1;align=center;verticalAlign=middle;resizable=0;points=[];autosize=1;strokeColor=none;fillColor=none;" parent="1" vertex="1">
          <mxGeometry x="755" y="70" width="130" height="70" as="geometry" />
        </mxCell>
        <mxCell id="X1gRVMsdoYetH-ZWvzMt-16" value="Cairo Backend" style="rounded=1;whiteSpace=wrap;html=1;" parent="1" vertex="1">
          <mxGeometry x="760" y="270" width="120" height="40" as="geometry" />
        </mxCell>
        <mxCell id="X1gRVMsdoYetH-ZWvzMt-24" value="Transparent Backend" style="rounded=1;whiteSpace=wrap;html=1;fontColor=#B3B3B3;strokeColor=#B3B3B3;" parent="1" vertex="1">
          <mxGeometry x="760" y="170" width="120" height="40" as="geometry" />
        </mxCell>
        <mxCell id="X1gRVMsdoYetH-ZWvzMt-26" style="edgeStyle=orthogonalEdgeStyle;rounded=0;orthogonalLoop=1;jettySize=auto;html=1;entryX=0;entryY=0.5;entryDx=0;entryDy=0;exitX=1;exitY=0.5;exitDx=0;exitDy=0;" parent="1" source="X1gRVMsdoYetH-ZWvzMt-22" target="Yuy0NbO3R7iWnkuzjXzV-9" edge="1">
          <mxGeometry relative="1" as="geometry">
            <mxPoint x="660" y="290" as="sourcePoint" />
            <mxPoint x="1120" y="219.5" as="targetPoint" />
          </mxGeometry>
        </mxCell>
        <mxCell id="X1gRVMsdoYetH-ZWvzMt-32" value="ERC20&lt;br&gt;Contract" style="shape=note;whiteSpace=wrap;html=1;backgroundOutline=1;darkOpacity=0.05;size=10;" parent="1" vertex="1">
          <mxGeometry x="1090" y="400" width="60" height="80" as="geometry" />
        </mxCell>
        <mxCell id="X1gRVMsdoYetH-ZWvzMt-69" style="edgeStyle=orthogonalEdgeStyle;rounded=0;orthogonalLoop=1;jettySize=auto;html=1;exitX=0.5;exitY=1;exitDx=0;exitDy=0;entryX=0.5;entryY=0;entryDx=0;entryDy=0;entryPerimeter=0;" parent="1" source="Yuy0NbO3R7iWnkuzjXzV-8" target="M3dZQKaOegjF9fxwDLkP-26" edge="1">
          <mxGeometry relative="1" as="geometry">
            <mxPoint x="1290" y="500" as="sourcePoint" />
            <mxPoint x="1250" y="400" as="targetPoint" />
          </mxGeometry>
        </mxCell>
        <mxCell id="Yuy0NbO3R7iWnkuzjXzV-14" value="7. call&amp;nbsp;&lt;font face=&quot;Courier New&quot;&gt;wrap&lt;/font&gt;" style="edgeLabel;html=1;align=center;verticalAlign=middle;resizable=0;points=[];" parent="X1gRVMsdoYetH-ZWvzMt-69" vertex="1" connectable="0">
          <mxGeometry x="0.0986" y="2" relative="1" as="geometry">
            <mxPoint x="-2" y="2" as="offset" />
          </mxGeometry>
        </mxCell>
        <mxCell id="X1gRVMsdoYetH-ZWvzMt-75" style="edgeStyle=orthogonalEdgeStyle;rounded=0;orthogonalLoop=1;jettySize=auto;html=1;entryX=1.01;entryY=0.497;entryDx=0;entryDy=0;entryPerimeter=0;exitX=0;exitY=0.5;exitDx=0;exitDy=0;exitPerimeter=0;" parent="1" source="M3dZQKaOegjF9fxwDLkP-26" target="X1gRVMsdoYetH-ZWvzMt-32" edge="1">
          <mxGeometry relative="1" as="geometry">
            <mxPoint x="1220" y="440" as="sourcePoint" />
            <mxPoint x="1260" y="420" as="targetPoint" />
          </mxGeometry>
        </mxCell>
        <mxCell id="M3dZQKaOegjF9fxwDLkP-24" value="&lt;font&gt;8. call&lt;font style=&quot;&quot;&gt;&lt;span style=&quot;background-color: light-dark(#ffffff, var(--ge-dark-color, #121212)); color: light-dark(rgb(0, 0, 0), rgb(255, 255, 255));&quot;&gt;&lt;br&gt;&amp;nbsp;&lt;/span&gt;&lt;/font&gt;&lt;/font&gt;&lt;span style=&quot;background-color: light-dark(#ffffff, var(--ge-dark-color, #121212)); color: light-dark(rgb(0, 0, 0), rgb(255, 255, 255));&quot;&gt;&lt;font style=&quot;font-size: 10px;&quot; face=&quot;Courier New&quot;&gt;transferFrom&lt;/font&gt;&lt;/span&gt;" style="edgeLabel;html=1;align=center;verticalAlign=middle;resizable=0;points=[];" parent="X1gRVMsdoYetH-ZWvzMt-75" vertex="1" connectable="0">
          <mxGeometry x="0.134" y="1" relative="1" as="geometry">
            <mxPoint x="9" y="-1" as="offset" />
          </mxGeometry>
        </mxCell>
        <mxCell id="Yuy0NbO3R7iWnkuzjXzV-5" style="edgeStyle=orthogonalEdgeStyle;rounded=0;orthogonalLoop=1;jettySize=auto;html=1;exitX=0.5;exitY=0;exitDx=0;exitDy=0;entryX=0.75;entryY=1;entryDx=0;entryDy=0;" parent="1" source="Yuy0NbO3R7iWnkuzjXzV-8" target="Yuy0NbO3R7iWnkuzjXzV-2" edge="1">
          <mxGeometry relative="1" as="geometry" />
        </mxCell>
        <mxCell id="Yuy0NbO3R7iWnkuzjXzV-6" value="6. update" style="edgeLabel;html=1;align=center;verticalAlign=middle;resizable=0;points=[];" parent="Yuy0NbO3R7iWnkuzjXzV-5" vertex="1" connectable="0">
          <mxGeometry x="-0.1778" y="-2" relative="1" as="geometry">
            <mxPoint x="-2" as="offset" />
          </mxGeometry>
        </mxCell>
        <mxCell id="Yuy0NbO3R7iWnkuzjXzV-7" style="edgeStyle=orthogonalEdgeStyle;rounded=0;orthogonalLoop=1;jettySize=auto;html=1;entryX=0;entryY=0.5;entryDx=0;entryDy=0;exitX=1;exitY=0.5;exitDx=0;exitDy=0;" parent="1" source="Yuy0NbO3R7iWnkuzjXzV-9" target="Yuy0NbO3R7iWnkuzjXzV-8" edge="1">
          <mxGeometry relative="1" as="geometry">
            <mxPoint x="1100" y="498" as="sourcePoint" />
          </mxGeometry>
        </mxCell>
        <mxCell id="Yuy0NbO3R7iWnkuzjXzV-8" value="execute(tx)" style="rounded=0;whiteSpace=wrap;html=1;" parent="1" vertex="1">
          <mxGeometry x="1240" y="310" width="80" height="20" as="geometry" />
        </mxCell>
        <mxCell id="Yuy0NbO3R7iWnkuzjXzV-9" value="verify(tx)" style="rounded=0;whiteSpace=wrap;html=1;" parent="1" vertex="1">
          <mxGeometry x="1120" y="310" width="80" height="20" as="geometry" />
        </mxCell>
        <mxCell id="Yuy0NbO3R7iWnkuzjXzV-10" style="edgeStyle=orthogonalEdgeStyle;rounded=0;orthogonalLoop=1;jettySize=auto;html=1;entryX=0.25;entryY=1;entryDx=0;entryDy=0;exitX=0.5;exitY=0;exitDx=0;exitDy=0;" parent="1" source="Yuy0NbO3R7iWnkuzjXzV-9" target="Yuy0NbO3R7iWnkuzjXzV-2" edge="1">
          <mxGeometry relative="1" as="geometry">
            <mxPoint x="1220" y="508" as="sourcePoint" />
            <mxPoint x="1250" y="361" as="targetPoint" />
          </mxGeometry>
        </mxCell>
        <mxCell id="Yuy0NbO3R7iWnkuzjXzV-11" value="5. check" style="edgeLabel;html=1;align=center;verticalAlign=middle;resizable=0;points=[];" parent="Yuy0NbO3R7iWnkuzjXzV-10" vertex="1" connectable="0">
          <mxGeometry x="-0.2667" y="1" relative="1" as="geometry">
            <mxPoint x="1" y="-2" as="offset" />
          </mxGeometry>
        </mxCell>
        <mxCell id="Yuy0NbO3R7iWnkuzjXzV-13" value="" style="group" parent="1" vertex="1" connectable="0">
          <mxGeometry x="1100" y="200" width="240" height="80" as="geometry" />
        </mxCell>
        <mxCell id="Yuy0NbO3R7iWnkuzjXzV-2" value="RM State" style="rounded=1;whiteSpace=wrap;html=1;dashed=1;labelPosition=center;verticalLabelPosition=top;align=center;verticalAlign=bottom;" parent="Yuy0NbO3R7iWnkuzjXzV-13" vertex="1">
          <mxGeometry width="240" height="80" as="geometry" />
        </mxCell>
        <mxCell id="Yuy0NbO3R7iWnkuzjXzV-3" value="Nullifier Set" style="shape=cylinder3;whiteSpace=wrap;html=1;boundedLbl=1;backgroundOutline=1;size=15;" parent="Yuy0NbO3R7iWnkuzjXzV-13" vertex="1">
          <mxGeometry x="140" y="5" width="80" height="70" as="geometry" />
        </mxCell>
        <mxCell id="Yuy0NbO3R7iWnkuzjXzV-4" value="Commitment Accumulator" style="shape=cylinder3;whiteSpace=wrap;html=1;boundedLbl=1;backgroundOutline=1;size=15;" parent="Yuy0NbO3R7iWnkuzjXzV-13" vertex="1">
          <mxGeometry x="20" y="5" width="80" height="70" as="geometry" />
        </mxCell>
        <mxCell id="X1gRVMsdoYetH-ZWvzMt-18" value="2. prove" style="edgeStyle=orthogonalEdgeStyle;rounded=0;orthogonalLoop=1;jettySize=auto;html=1;exitX=0.5;exitY=0;exitDx=0;exitDy=0;entryX=0.5;entryY=1;entryDx=0;entryDy=0;" parent="1" source="X1gRVMsdoYetH-ZWvzMt-10" target="X1gRVMsdoYetH-ZWvzMt-16" edge="1">
          <mxGeometry relative="1" as="geometry">
            <mxPoint as="offset" />
          </mxGeometry>
        </mxCell>
        <mxCell id="X1gRVMsdoYetH-ZWvzMt-9" value="Wrapper Resource&lt;br&gt;&amp;amp; Logic" style="rounded=1;whiteSpace=wrap;html=1;" parent="1" vertex="1">
          <mxGeometry x="760" y="420" width="120" height="40" as="geometry" />
        </mxCell>
        <mxCell id="X1gRVMsdoYetH-ZWvzMt-10" value="&lt;div&gt;&lt;span style=&quot;background-color: transparent; color: light-dark(rgb(0, 0, 0), rgb(255, 255, 255));&quot;&gt;Transaction Functions&lt;/span&gt;&lt;br&gt;&lt;/div&gt;" style="rounded=1;whiteSpace=wrap;html=1;" parent="1" vertex="1">
          <mxGeometry x="760" y="370" width="120" height="40" as="geometry" />
        </mxCell>
        <mxCell id="M3dZQKaOegjF9fxwDLkP-6" value="User" style="shape=umlActor;verticalLabelPosition=bottom;verticalAlign=top;html=1;outlineConnect=0;" parent="1" vertex="1">
          <mxGeometry x="985" y="410" width="30" height="60" as="geometry" />
        </mxCell>
        <mxCell id="M3dZQKaOegjF9fxwDLkP-7" style="edgeStyle=orthogonalEdgeStyle;rounded=0;orthogonalLoop=1;jettySize=auto;html=1;entryX=0;entryY=0.5;entryDx=0;entryDy=0;jumpStyle=none;exitX=1;exitY=0.5;exitDx=0;exitDy=0;" parent="1" source="M3dZQKaOegjF9fxwDLkP-12" target="Yuy0NbO3R7iWnkuzjXzV-2" edge="1">
          <mxGeometry relative="1" as="geometry">
            <mxPoint x="960" y="210" as="sourcePoint" />
            <Array as="points">
              <mxPoint x="890" y="240" />
            </Array>
          </mxGeometry>
        </mxCell>
        <mxCell id="M3dZQKaOegjF9fxwDLkP-8" value="3. check" style="edgeLabel;html=1;align=center;verticalAlign=middle;resizable=0;points=[];" parent="M3dZQKaOegjF9fxwDLkP-7" vertex="1" connectable="0">
          <mxGeometry x="0.1594" relative="1" as="geometry">
            <mxPoint x="-92" as="offset" />
          </mxGeometry>
        </mxCell>
        <mxCell id="X1gRVMsdoYetH-ZWvzMt-22" value="Transaction Object" style="rounded=1;whiteSpace=wrap;html=1;" parent="1" vertex="1">
          <mxGeometry x="940" y="300" width="120" height="40" as="geometry" />
        </mxCell>
        <mxCell id="M3dZQKaOegjF9fxwDLkP-17" style="edgeStyle=orthogonalEdgeStyle;rounded=0;orthogonalLoop=1;jettySize=auto;html=1;entryX=1;entryY=0.75;entryDx=0;entryDy=0;" parent="1" source="M3dZQKaOegjF9fxwDLkP-6" target="X1gRVMsdoYetH-ZWvzMt-10" edge="1">
          <mxGeometry relative="1" as="geometry">
            <mxPoint x="940" y="380" as="targetPoint" />
            <mxPoint x="890" y="380" as="sourcePoint" />
            <Array as="points">
              <mxPoint x="920" y="440" />
              <mxPoint x="920" y="400" />
            </Array>
          </mxGeometry>
        </mxCell>
        <mxCell id="M3dZQKaOegjF9fxwDLkP-18" value="1. call" style="edgeLabel;html=1;align=center;verticalAlign=middle;resizable=0;points=[];" parent="M3dZQKaOegjF9fxwDLkP-17" vertex="1" connectable="0">
          <mxGeometry x="-0.1335" y="2" relative="1" as="geometry">
            <mxPoint x="-4" y="-22" as="offset" />
          </mxGeometry>
        </mxCell>
        <mxCell id="M3dZQKaOegjF9fxwDLkP-26" value="Resource&lt;br&gt;Wrapper&lt;br&gt;Contract" style="shape=note;whiteSpace=wrap;html=1;backgroundOutline=1;darkOpacity=0.05;size=10;" parent="1" vertex="1">
          <mxGeometry x="1250" y="400" width="60" height="80" as="geometry" />
        </mxCell>
        <mxCell id="M3dZQKaOegjF9fxwDLkP-28" value="Projection&lt;br&gt;Functions" style="rounded=1;whiteSpace=wrap;html=1;" parent="1" vertex="1">
          <mxGeometry x="760" y="470" width="120" height="40" as="geometry" />
        </mxCell>
        <mxCell id="M3dZQKaOegjF9fxwDLkP-30" value="RISC Zero Backend" style="rounded=1;whiteSpace=wrap;html=1;fontColor=#B3B3B3;strokeColor=#B3B3B3;" parent="1" vertex="1">
          <mxGeometry x="760" y="220" width="120" height="40" as="geometry" />
        </mxCell>
        <mxCell id="M3dZQKaOegjF9fxwDLkP-59" style="edgeStyle=orthogonalEdgeStyle;rounded=0;orthogonalLoop=1;jettySize=auto;html=1;entryX=0;entryY=0.5;entryDx=0;entryDy=0;entryPerimeter=0;" parent="1" source="M3dZQKaOegjF9fxwDLkP-6" target="X1gRVMsdoYetH-ZWvzMt-32" edge="1">
          <mxGeometry relative="1" as="geometry">
            <mxPoint x="1070" y="330" as="sourcePoint" />
            <mxPoint x="1130" y="330" as="targetPoint" />
          </mxGeometry>
        </mxCell>
        <mxCell id="M3dZQKaOegjF9fxwDLkP-60" value="0. approve&lt;br&gt;&lt;font style=&quot;font-size: 10px;&quot; face=&quot;Courier New&quot;&gt;Resource&lt;br&gt;Wrapper&lt;/font&gt;" style="edgeLabel;html=1;align=center;verticalAlign=middle;resizable=0;points=[];" parent="M3dZQKaOegjF9fxwDLkP-59" vertex="1" connectable="0">
          <mxGeometry x="-0.2141" relative="1" as="geometry">
            <mxPoint x="5" as="offset" />
          </mxGeometry>
        </mxCell>
        <mxCell id="M3dZQKaOegjF9fxwDLkP-63" value="" style="endArrow=none;html=1;rounded=0;edgeStyle=orthogonalEdgeStyle;entryX=0;entryY=0.5;entryDx=0;entryDy=0;exitX=1;exitY=0.25;exitDx=0;exitDy=0;" parent="1" source="X1gRVMsdoYetH-ZWvzMt-10" target="X1gRVMsdoYetH-ZWvzMt-22" edge="1">
          <mxGeometry width="50" height="50" relative="1" as="geometry">
            <mxPoint x="1060" y="400" as="sourcePoint" />
            <mxPoint x="1110" y="350" as="targetPoint" />
            <Array as="points">
              <mxPoint x="920" y="380" />
              <mxPoint x="920" y="320" />
            </Array>
          </mxGeometry>
        </mxCell>
        <mxCell id="M3dZQKaOegjF9fxwDLkP-65" value="4. send" style="edgeLabel;html=1;align=center;verticalAlign=middle;resizable=0;points=[];" parent="M3dZQKaOegjF9fxwDLkP-63" vertex="1" connectable="0">
          <mxGeometry x="0.1537" y="1" relative="1" as="geometry">
            <mxPoint y="-2" as="offset" />
          </mxGeometry>
        </mxCell>
      </root>
    </mxGraphModel>
  </diagram>
  <diagram name="Dependencies" id="EIu5864ZiPGgtCrqBXp_">
    <mxGraphModel dx="2434" dy="854" grid="1" gridSize="10" guides="1" tooltips="1" connect="1" arrows="1" fold="1" page="1" pageScale="1" pageWidth="1000" pageHeight="1000" math="0" shadow="0">
      <root>
        <mxCell id="0" />
        <mxCell id="1" parent="0" />
        <mxCell id="OTA7IhnV_E8W4GshgQvg-14" style="edgeStyle=orthogonalEdgeStyle;rounded=0;orthogonalLoop=1;jettySize=auto;html=1;exitX=0.5;exitY=1;exitDx=0;exitDy=0;entryX=0;entryY=0.5;entryDx=0;entryDy=0;noEdgeStyle=1;orthogonal=1;" edge="1" parent="1" source="OTA7IhnV_E8W4GshgQvg-1" target="OTA7IhnV_E8W4GshgQvg-12">
          <mxGeometry relative="1" as="geometry">
            <Array as="points">
              <mxPoint x="92" y="98.33333333333333" />
              <mxPoint x="168" y="20" />
            </Array>
          </mxGeometry>
        </mxCell>
        <mxCell id="OTA7IhnV_E8W4GshgQvg-17" value="has" style="edgeLabel;html=1;align=center;verticalAlign=middle;resizable=0;points=[];" vertex="1" connectable="0" parent="OTA7IhnV_E8W4GshgQvg-14">
          <mxGeometry x="0.325" y="1" relative="1" as="geometry">
            <mxPoint as="offset" />
          </mxGeometry>
        </mxCell>
        <mxCell id="OTA7IhnV_E8W4GshgQvg-15" style="edgeStyle=orthogonalEdgeStyle;rounded=0;orthogonalLoop=1;jettySize=auto;html=1;exitX=0.5;exitY=1;exitDx=0;exitDy=0;entryX=0;entryY=0.5;entryDx=0;entryDy=0;noEdgeStyle=1;orthogonal=1;" edge="1" parent="1" source="OTA7IhnV_E8W4GshgQvg-1" target="OTA7IhnV_E8W4GshgQvg-11">
          <mxGeometry relative="1" as="geometry">
            <Array as="points">
              <mxPoint x="96" y="111.66666666666667" />
              <mxPoint x="130" y="100" />
              <mxPoint x="310" y="100" />
              <mxPoint x="348" y="117.5" />
            </Array>
          </mxGeometry>
        </mxCell>
        <mxCell id="OTA7IhnV_E8W4GshgQvg-16" value="has" style="edgeLabel;html=1;align=center;verticalAlign=middle;resizable=0;points=[];" vertex="1" connectable="0" parent="OTA7IhnV_E8W4GshgQvg-15">
          <mxGeometry x="-0.1882" y="-2" relative="1" as="geometry">
            <mxPoint as="offset" />
          </mxGeometry>
        </mxCell>
        <mxCell id="OTA7IhnV_E8W4GshgQvg-23" style="edgeStyle=orthogonalEdgeStyle;rounded=0;orthogonalLoop=1;jettySize=auto;html=1;exitX=0;exitY=0.5;exitDx=0;exitDy=0;noEdgeStyle=1;orthogonal=1;" edge="1" parent="1" source="OTA7IhnV_E8W4GshgQvg-1" target="OTA7IhnV_E8W4GshgQvg-18">
          <mxGeometry relative="1" as="geometry">
            <Array as="points">
              <mxPoint x="94" y="105" />
              <mxPoint x="130" y="70" />
              <mxPoint x="310" y="70" />
              <mxPoint x="310" y="75" />
              <mxPoint x="490" y="75" />
              <mxPoint x="526" y="120" />
            </Array>
          </mxGeometry>
        </mxCell>
        <mxCell id="OTA7IhnV_E8W4GshgQvg-24" value="has" style="edgeLabel;html=1;align=center;verticalAlign=middle;resizable=0;points=[];" vertex="1" connectable="0" parent="OTA7IhnV_E8W4GshgQvg-23">
          <mxGeometry x="-0.3692" relative="1" as="geometry">
            <mxPoint as="offset" />
          </mxGeometry>
        </mxCell>
        <mxCell id="OTA7IhnV_E8W4GshgQvg-29" style="edgeStyle=orthogonalEdgeStyle;rounded=0;orthogonalLoop=1;jettySize=auto;html=1;exitX=1;exitY=0.25;exitDx=0;exitDy=0;noEdgeStyle=1;orthogonal=1;" edge="1" parent="1" source="OTA7IhnV_E8W4GshgQvg-1" target="OTA7IhnV_E8W4GshgQvg-5">
          <mxGeometry relative="1" as="geometry">
            <Array as="points">
              <mxPoint x="96" y="118.33333333333334" />
              <mxPoint x="130" y="130" />
              <mxPoint x="310" y="130" />
              <mxPoint x="310" y="175" />
              <mxPoint x="490" y="175" />
              <mxPoint x="528" y="178.75" />
            </Array>
          </mxGeometry>
        </mxCell>
        <mxCell id="OTA7IhnV_E8W4GshgQvg-30" value="computes" style="edgeLabel;html=1;align=center;verticalAlign=middle;resizable=0;points=[];" vertex="1" connectable="0" parent="OTA7IhnV_E8W4GshgQvg-29">
          <mxGeometry x="-0.2824" relative="1" as="geometry">
            <mxPoint as="offset" />
          </mxGeometry>
        </mxCell>
        <mxCell id="OTA7IhnV_E8W4GshgQvg-35" style="edgeStyle=orthogonalEdgeStyle;rounded=0;orthogonalLoop=1;jettySize=auto;html=1;exitX=0.5;exitY=0;exitDx=0;exitDy=0;entryX=0;entryY=0.5;entryDx=0;entryDy=0;noEdgeStyle=1;orthogonal=1;" edge="1" parent="1" source="OTA7IhnV_E8W4GshgQvg-1" target="OTA7IhnV_E8W4GshgQvg-34">
          <mxGeometry relative="1" as="geometry">
            <Array as="points">
              <mxPoint x="94" y="125.00000000000001" />
              <mxPoint x="168" y="180" />
            </Array>
          </mxGeometry>
        </mxCell>
        <mxCell id="OTA7IhnV_E8W4GshgQvg-36" value="has" style="edgeLabel;html=1;align=center;verticalAlign=middle;resizable=0;points=[];" vertex="1" connectable="0" parent="OTA7IhnV_E8W4GshgQvg-35">
          <mxGeometry x="0.2118" y="2" relative="1" as="geometry">
            <mxPoint as="offset" />
          </mxGeometry>
        </mxCell>
        <mxCell id="OTA7IhnV_E8W4GshgQvg-39" style="edgeStyle=orthogonalEdgeStyle;rounded=0;orthogonalLoop=1;jettySize=auto;html=1;exitX=1;exitY=0.5;exitDx=0;exitDy=0;noEdgeStyle=1;orthogonal=1;" edge="1" parent="1" source="OTA7IhnV_E8W4GshgQvg-1" target="OTA7IhnV_E8W4GshgQvg-4">
          <mxGeometry relative="1" as="geometry">
            <Array as="points">
              <mxPoint x="92" y="131.66666666666669" />
              <mxPoint x="130" y="230" />
              <mxPoint x="310" y="230" />
              <mxPoint x="310" y="275" />
              <mxPoint x="490" y="275" />
              <mxPoint x="528" y="250" />
            </Array>
          </mxGeometry>
        </mxCell>
        <mxCell id="OTA7IhnV_E8W4GshgQvg-40" value="computes" style="edgeLabel;html=1;align=center;verticalAlign=middle;resizable=0;points=[];" vertex="1" connectable="0" parent="OTA7IhnV_E8W4GshgQvg-39">
          <mxGeometry x="0.0167" y="-3" relative="1" as="geometry">
            <mxPoint as="offset" />
          </mxGeometry>
        </mxCell>
        <mxCell id="OTA7IhnV_E8W4GshgQvg-1" value="Resource" style="rounded=1;whiteSpace=wrap;html=1;" vertex="1" parent="1">
          <mxGeometry y="95" width="80" height="40" as="geometry" />
        </mxCell>
        <mxCell id="OTA7IhnV_E8W4GshgQvg-63" style="edgeStyle=orthogonalEdgeStyle;rounded=0;orthogonalLoop=1;jettySize=auto;html=1;exitX=1;exitY=0.25;exitDx=0;exitDy=0;entryX=0;entryY=0.5;entryDx=0;entryDy=0;noEdgeStyle=1;orthogonal=1;" edge="1" parent="1" source="OTA7IhnV_E8W4GshgQvg-3" target="OTA7IhnV_E8W4GshgQvg-50">
          <mxGeometry relative="1" as="geometry">
            <Array as="points">
              <mxPoint x="92" y="373.75" />
              <mxPoint x="168" y="280" />
            </Array>
          </mxGeometry>
        </mxCell>
        <mxCell id="OTA7IhnV_E8W4GshgQvg-64" value="verifies" style="edgeLabel;html=1;align=center;verticalAlign=middle;resizable=0;points=[];" vertex="1" connectable="0" parent="OTA7IhnV_E8W4GshgQvg-63">
          <mxGeometry x="-0.5652" relative="1" as="geometry">
            <mxPoint as="offset" />
          </mxGeometry>
        </mxCell>
        <mxCell id="OTA7IhnV_E8W4GshgQvg-65" style="edgeStyle=orthogonalEdgeStyle;rounded=0;orthogonalLoop=1;jettySize=auto;html=1;exitX=1;exitY=0.5;exitDx=0;exitDy=0;entryX=0;entryY=0.5;entryDx=0;entryDy=0;noEdgeStyle=1;orthogonal=1;" edge="1" parent="1" source="OTA7IhnV_E8W4GshgQvg-3" target="OTA7IhnV_E8W4GshgQvg-57">
          <mxGeometry relative="1" as="geometry">
            <Array as="points">
              <mxPoint x="94" y="381.25" />
              <mxPoint x="168" y="350" />
            </Array>
          </mxGeometry>
        </mxCell>
        <mxCell id="OTA7IhnV_E8W4GshgQvg-66" value="verifies" style="edgeLabel;html=1;align=center;verticalAlign=middle;resizable=0;points=[];" vertex="1" connectable="0" parent="OTA7IhnV_E8W4GshgQvg-65">
          <mxGeometry x="-0.21" y="3" relative="1" as="geometry">
            <mxPoint as="offset" />
          </mxGeometry>
        </mxCell>
        <mxCell id="OTA7IhnV_E8W4GshgQvg-67" style="edgeStyle=orthogonalEdgeStyle;rounded=0;orthogonalLoop=1;jettySize=auto;html=1;exitX=1;exitY=0.75;exitDx=0;exitDy=0;entryX=0;entryY=0.5;entryDx=0;entryDy=0;noEdgeStyle=1;orthogonal=1;" edge="1" parent="1" source="OTA7IhnV_E8W4GshgQvg-3" target="OTA7IhnV_E8W4GshgQvg-53">
          <mxGeometry relative="1" as="geometry">
            <Array as="points">
              <mxPoint x="92" y="396.25" />
              <mxPoint x="168" y="490" />
            </Array>
          </mxGeometry>
        </mxCell>
        <mxCell id="OTA7IhnV_E8W4GshgQvg-68" value="verifies" style="edgeLabel;html=1;align=center;verticalAlign=middle;resizable=0;points=[];" vertex="1" connectable="0" parent="OTA7IhnV_E8W4GshgQvg-67">
          <mxGeometry x="-0.3333" relative="1" as="geometry">
            <mxPoint as="offset" />
          </mxGeometry>
        </mxCell>
        <mxCell id="OTA7IhnV_E8W4GshgQvg-69" style="edgeStyle=orthogonalEdgeStyle;rounded=0;orthogonalLoop=1;jettySize=auto;html=1;exitX=1;exitY=0.75;exitDx=0;exitDy=0;entryX=0;entryY=0.5;entryDx=0;entryDy=0;noEdgeStyle=1;orthogonal=1;" edge="1" parent="1" source="OTA7IhnV_E8W4GshgQvg-3" target="OTA7IhnV_E8W4GshgQvg-7">
          <mxGeometry relative="1" as="geometry">
            <Array as="points">
              <mxPoint x="94" y="388.75" />
              <mxPoint x="168" y="420" />
            </Array>
          </mxGeometry>
        </mxCell>
        <mxCell id="OTA7IhnV_E8W4GshgQvg-70" value="executes" style="edgeLabel;html=1;align=center;verticalAlign=middle;resizable=0;points=[];" vertex="1" connectable="0" parent="OTA7IhnV_E8W4GshgQvg-69">
          <mxGeometry x="-0.1266" y="1" relative="1" as="geometry">
            <mxPoint as="offset" />
          </mxGeometry>
        </mxCell>
        <mxCell id="OTA7IhnV_E8W4GshgQvg-3" value="Protocol Adapter" style="rounded=1;whiteSpace=wrap;html=1;" vertex="1" parent="1">
          <mxGeometry y="365" width="80" height="40" as="geometry" />
        </mxCell>
        <mxCell id="OTA7IhnV_E8W4GshgQvg-4" value="Commitment" style="rounded=1;whiteSpace=wrap;html=1;" vertex="1" parent="1">
          <mxGeometry x="540" y="240" width="80" height="40" as="geometry" />
        </mxCell>
        <mxCell id="OTA7IhnV_E8W4GshgQvg-5" value="Nullifier" style="rounded=1;whiteSpace=wrap;html=1;" vertex="1" parent="1">
          <mxGeometry x="540" y="170" width="80" height="40" as="geometry" />
        </mxCell>
        <mxCell id="OTA7IhnV_E8W4GshgQvg-20" style="edgeStyle=orthogonalEdgeStyle;rounded=0;orthogonalLoop=1;jettySize=auto;html=1;exitX=0;exitY=0.5;exitDx=0;exitDy=0;entryX=0.5;entryY=0;entryDx=0;entryDy=0;noEdgeStyle=1;orthogonal=1;" edge="1" parent="1" source="OTA7IhnV_E8W4GshgQvg-7" target="OTA7IhnV_E8W4GshgQvg-19">
          <mxGeometry relative="1" as="geometry">
            <Array as="points">
              <mxPoint x="272" y="427.5" />
              <mxPoint x="310" y="435" />
              <mxPoint x="490" y="435" />
              <mxPoint x="490" y="435" />
              <mxPoint x="670" y="435" />
              <mxPoint x="706" y="380" />
            </Array>
          </mxGeometry>
        </mxCell>
        <mxCell id="OTA7IhnV_E8W4GshgQvg-22" value="has" style="edgeLabel;html=1;align=center;verticalAlign=middle;resizable=0;points=[];" vertex="1" connectable="0" parent="OTA7IhnV_E8W4GshgQvg-20">
          <mxGeometry x="-0.3167" y="-2" relative="1" as="geometry">
            <mxPoint as="offset" />
          </mxGeometry>
        </mxCell>
        <mxCell id="OTA7IhnV_E8W4GshgQvg-41" value="has" style="edgeStyle=orthogonalEdgeStyle;rounded=0;orthogonalLoop=1;jettySize=auto;html=1;exitX=1;exitY=0.5;exitDx=0;exitDy=0;entryX=0;entryY=0.5;entryDx=0;entryDy=0;noEdgeStyle=1;orthogonal=1;" edge="1" parent="1" source="OTA7IhnV_E8W4GshgQvg-7" target="OTA7IhnV_E8W4GshgQvg-8">
          <mxGeometry relative="1" as="geometry">
            <Array as="points">
              <mxPoint x="272" y="412.5" />
              <mxPoint x="348" y="385" />
            </Array>
          </mxGeometry>
        </mxCell>
        <mxCell id="OTA7IhnV_E8W4GshgQvg-7" value="Transaction" style="rounded=1;whiteSpace=wrap;html=1;" vertex="1" parent="1">
          <mxGeometry x="180" y="400" width="80" height="40" as="geometry" />
        </mxCell>
        <mxCell id="OTA7IhnV_E8W4GshgQvg-43" style="edgeStyle=orthogonalEdgeStyle;rounded=0;orthogonalLoop=1;jettySize=auto;html=1;exitX=0.25;exitY=0;exitDx=0;exitDy=0;entryX=0;entryY=0.75;entryDx=0;entryDy=0;noEdgeStyle=1;orthogonal=1;" edge="1" parent="1" source="OTA7IhnV_E8W4GshgQvg-8" target="OTA7IhnV_E8W4GshgQvg-4">
          <mxGeometry relative="1" as="geometry">
            <Array as="points">
              <mxPoint x="454" y="385" />
              <mxPoint x="528" y="270" />
            </Array>
          </mxGeometry>
        </mxCell>
        <mxCell id="OTA7IhnV_E8W4GshgQvg-44" value="Includes" style="edgeLabel;html=1;align=center;verticalAlign=middle;resizable=0;points=[];" vertex="1" connectable="0" parent="OTA7IhnV_E8W4GshgQvg-43">
          <mxGeometry x="0.3" y="-1" relative="1" as="geometry">
            <mxPoint x="1" as="offset" />
          </mxGeometry>
        </mxCell>
        <mxCell id="OTA7IhnV_E8W4GshgQvg-45" style="edgeStyle=orthogonalEdgeStyle;rounded=0;orthogonalLoop=1;jettySize=auto;html=1;exitX=0.5;exitY=0;exitDx=0;exitDy=0;noEdgeStyle=1;orthogonal=1;" edge="1" parent="1" source="OTA7IhnV_E8W4GshgQvg-8" target="OTA7IhnV_E8W4GshgQvg-5">
          <mxGeometry relative="1" as="geometry">
            <Array as="points">
              <mxPoint x="452" y="375" />
              <mxPoint x="528" y="201.25" />
            </Array>
          </mxGeometry>
        </mxCell>
        <mxCell id="OTA7IhnV_E8W4GshgQvg-46" value="includes" style="edgeLabel;html=1;align=center;verticalAlign=middle;resizable=0;points=[];" vertex="1" connectable="0" parent="OTA7IhnV_E8W4GshgQvg-45">
          <mxGeometry x="-0.5693" y="-1" relative="1" as="geometry">
            <mxPoint x="1" as="offset" />
          </mxGeometry>
        </mxCell>
        <mxCell id="OTA7IhnV_E8W4GshgQvg-48" style="edgeStyle=orthogonalEdgeStyle;rounded=0;orthogonalLoop=1;jettySize=auto;html=1;exitX=1;exitY=0.5;exitDx=0;exitDy=0;entryX=0;entryY=0.5;entryDx=0;entryDy=0;noEdgeStyle=1;orthogonal=1;" edge="1" parent="1" source="OTA7IhnV_E8W4GshgQvg-8" target="OTA7IhnV_E8W4GshgQvg-47">
          <mxGeometry relative="1" as="geometry">
            <Array as="points">
              <mxPoint x="452" y="395" />
            </Array>
          </mxGeometry>
        </mxCell>
        <mxCell id="OTA7IhnV_E8W4GshgQvg-49" value="includes" style="edgeLabel;html=1;align=center;verticalAlign=middle;resizable=0;points=[];" vertex="1" connectable="0" parent="OTA7IhnV_E8W4GshgQvg-48">
          <mxGeometry x="-0.2945" y="2" relative="1" as="geometry">
            <mxPoint as="offset" />
          </mxGeometry>
        </mxCell>
        <mxCell id="OTA7IhnV_E8W4GshgQvg-8" value="Action" style="rounded=1;whiteSpace=wrap;html=1;" vertex="1" parent="1">
          <mxGeometry x="360" y="365" width="80" height="40" as="geometry" />
        </mxCell>
        <mxCell id="OTA7IhnV_E8W4GshgQvg-26" style="edgeStyle=orthogonalEdgeStyle;rounded=0;orthogonalLoop=1;jettySize=auto;html=1;exitX=0.25;exitY=1;exitDx=0;exitDy=0;entryX=0;entryY=0.5;entryDx=0;entryDy=0;noEdgeStyle=1;orthogonal=1;" edge="1" parent="1" source="OTA7IhnV_E8W4GshgQvg-11" target="OTA7IhnV_E8W4GshgQvg-18">
          <mxGeometry relative="1" as="geometry">
            <Array as="points">
              <mxPoint x="452" y="125" />
              <mxPoint x="528" y="130" />
            </Array>
          </mxGeometry>
        </mxCell>
        <mxCell id="OTA7IhnV_E8W4GshgQvg-28" value="determines" style="edgeLabel;html=1;align=center;verticalAlign=middle;resizable=0;points=[];" vertex="1" connectable="0" parent="OTA7IhnV_E8W4GshgQvg-26">
          <mxGeometry x="0.3533" y="1" relative="1" as="geometry">
            <mxPoint as="offset" />
          </mxGeometry>
        </mxCell>
        <mxCell id="OTA7IhnV_E8W4GshgQvg-11" value="Logic" style="rounded=1;whiteSpace=wrap;html=1;" vertex="1" parent="1">
          <mxGeometry x="360" y="105" width="80" height="40" as="geometry" />
        </mxCell>
        <mxCell id="OTA7IhnV_E8W4GshgQvg-25" style="edgeStyle=orthogonalEdgeStyle;rounded=0;orthogonalLoop=1;jettySize=auto;html=1;exitX=0.25;exitY=1;exitDx=0;exitDy=0;entryX=0;entryY=0.25;entryDx=0;entryDy=0;noEdgeStyle=1;orthogonal=1;" edge="1" parent="1" source="OTA7IhnV_E8W4GshgQvg-12" target="OTA7IhnV_E8W4GshgQvg-18">
          <mxGeometry relative="1" as="geometry">
            <Array as="points">
              <mxPoint x="272" y="20" />
              <mxPoint x="310" y="45" />
              <mxPoint x="490" y="45" />
              <mxPoint x="528" y="110" />
            </Array>
          </mxGeometry>
        </mxCell>
        <mxCell id="OTA7IhnV_E8W4GshgQvg-27" value="determines" style="edgeLabel;html=1;align=center;verticalAlign=middle;resizable=0;points=[];" vertex="1" connectable="0" parent="OTA7IhnV_E8W4GshgQvg-25">
          <mxGeometry x="-0.2" y="-4" relative="1" as="geometry">
            <mxPoint x="19" as="offset" />
          </mxGeometry>
        </mxCell>
        <mxCell id="OTA7IhnV_E8W4GshgQvg-12" value="Label" style="rounded=1;whiteSpace=wrap;html=1;" vertex="1" parent="1">
          <mxGeometry x="180" width="80" height="40" as="geometry" />
        </mxCell>
        <mxCell id="OTA7IhnV_E8W4GshgQvg-21" style="edgeStyle=orthogonalEdgeStyle;rounded=0;orthogonalLoop=1;jettySize=auto;html=1;exitX=1;exitY=0.5;exitDx=0;exitDy=0;entryX=0;entryY=0.25;entryDx=0;entryDy=0;noEdgeStyle=1;orthogonal=1;" edge="1" parent="1" source="OTA7IhnV_E8W4GshgQvg-18" target="OTA7IhnV_E8W4GshgQvg-19">
          <mxGeometry relative="1" as="geometry">
            <Array as="points">
              <mxPoint x="632" y="120" />
              <mxPoint x="708" y="370" />
            </Array>
          </mxGeometry>
        </mxCell>
        <mxCell id="OTA7IhnV_E8W4GshgQvg-42" value="determines" style="edgeLabel;html=1;align=center;verticalAlign=middle;resizable=0;points=[];" vertex="1" connectable="0" parent="OTA7IhnV_E8W4GshgQvg-21">
          <mxGeometry x="-0.2561" y="4" relative="1" as="geometry">
            <mxPoint as="offset" />
          </mxGeometry>
        </mxCell>
        <mxCell id="OTA7IhnV_E8W4GshgQvg-18" value="Kind" style="rounded=1;whiteSpace=wrap;html=1;" vertex="1" parent="1">
          <mxGeometry x="540" y="100" width="80" height="40" as="geometry" />
        </mxCell>
        <mxCell id="OTA7IhnV_E8W4GshgQvg-19" value="Delta" style="rounded=1;whiteSpace=wrap;html=1;" vertex="1" parent="1">
          <mxGeometry x="720" y="360" width="80" height="40" as="geometry" />
        </mxCell>
        <mxCell id="OTA7IhnV_E8W4GshgQvg-32" style="edgeStyle=orthogonalEdgeStyle;rounded=0;orthogonalLoop=1;jettySize=auto;html=1;exitX=0.5;exitY=1;exitDx=0;exitDy=0;entryX=0;entryY=0.75;entryDx=0;entryDy=0;noEdgeStyle=1;orthogonal=1;" edge="1" parent="1" source="OTA7IhnV_E8W4GshgQvg-31" target="OTA7IhnV_E8W4GshgQvg-5">
          <mxGeometry relative="1" as="geometry">
            <Array as="points">
              <mxPoint x="452" y="225" />
              <mxPoint x="526" y="186.25" />
            </Array>
          </mxGeometry>
        </mxCell>
        <mxCell id="OTA7IhnV_E8W4GshgQvg-33" value="computes" style="edgeLabel;html=1;align=center;verticalAlign=middle;resizable=0;points=[];" vertex="1" connectable="0" parent="OTA7IhnV_E8W4GshgQvg-32">
          <mxGeometry x="-0.1" y="2" relative="1" as="geometry">
            <mxPoint x="10" y="1" as="offset" />
          </mxGeometry>
        </mxCell>
        <mxCell id="OTA7IhnV_E8W4GshgQvg-31" value="NullifierKey" style="rounded=1;whiteSpace=wrap;html=1;" vertex="1" parent="1">
          <mxGeometry x="360" y="205" width="80" height="40" as="geometry" />
        </mxCell>
        <mxCell id="OTA7IhnV_E8W4GshgQvg-37" style="edgeStyle=orthogonalEdgeStyle;rounded=0;orthogonalLoop=1;jettySize=auto;html=1;exitX=1;exitY=0.5;exitDx=0;exitDy=0;entryX=0;entryY=0.5;entryDx=0;entryDy=0;noEdgeStyle=1;orthogonal=1;" edge="1" parent="1" source="OTA7IhnV_E8W4GshgQvg-34" target="OTA7IhnV_E8W4GshgQvg-31">
          <mxGeometry relative="1" as="geometry">
            <Array as="points">
              <mxPoint x="272" y="180" />
              <mxPoint x="348" y="225" />
            </Array>
          </mxGeometry>
        </mxCell>
        <mxCell id="OTA7IhnV_E8W4GshgQvg-38" value="commits to" style="edgeLabel;html=1;align=center;verticalAlign=middle;resizable=0;points=[];" vertex="1" connectable="0" parent="OTA7IhnV_E8W4GshgQvg-37">
          <mxGeometry x="0.0545" y="-1" relative="1" as="geometry">
            <mxPoint as="offset" />
          </mxGeometry>
        </mxCell>
        <mxCell id="OTA7IhnV_E8W4GshgQvg-34" value="NullifierKey-Commitment" style="rounded=1;whiteSpace=wrap;html=1;" vertex="1" parent="1">
          <mxGeometry x="180" y="160" width="80" height="40" as="geometry" />
        </mxCell>
        <mxCell id="OTA7IhnV_E8W4GshgQvg-47" value="AppData" style="rounded=1;whiteSpace=wrap;html=1;" vertex="1" parent="1">
          <mxGeometry x="550" y="365" width="80" height="40" as="geometry" />
        </mxCell>
        <mxCell id="OTA7IhnV_E8W4GshgQvg-51" style="edgeStyle=orthogonalEdgeStyle;rounded=0;orthogonalLoop=1;jettySize=auto;html=1;exitX=0.5;exitY=1;exitDx=0;exitDy=0;entryX=0;entryY=0.25;entryDx=0;entryDy=0;noEdgeStyle=1;orthogonal=1;" edge="1" parent="1" source="OTA7IhnV_E8W4GshgQvg-50" target="OTA7IhnV_E8W4GshgQvg-11">
          <mxGeometry relative="1" as="geometry">
            <Array as="points">
              <mxPoint x="272" y="280" />
              <mxPoint x="348" y="132.5" />
            </Array>
          </mxGeometry>
        </mxCell>
        <mxCell id="OTA7IhnV_E8W4GshgQvg-52" value="proves" style="edgeLabel;html=1;align=center;verticalAlign=middle;resizable=0;points=[];" vertex="1" connectable="0" parent="OTA7IhnV_E8W4GshgQvg-51">
          <mxGeometry x="-0.7412" y="2" relative="1" as="geometry">
            <mxPoint as="offset" />
          </mxGeometry>
        </mxCell>
        <mxCell id="OTA7IhnV_E8W4GshgQvg-62" value="proves" style="edgeLabel;html=1;align=center;verticalAlign=middle;resizable=0;points=[];" vertex="1" connectable="0" parent="OTA7IhnV_E8W4GshgQvg-51">
          <mxGeometry x="0.2573" y="-1" relative="1" as="geometry">
            <mxPoint as="offset" />
          </mxGeometry>
        </mxCell>
        <mxCell id="OTA7IhnV_E8W4GshgQvg-50" value="Logic Proof" style="rounded=1;whiteSpace=wrap;html=1;" vertex="1" parent="1">
          <mxGeometry x="180" y="260" width="80" height="40" as="geometry" />
        </mxCell>
        <mxCell id="OTA7IhnV_E8W4GshgQvg-55" style="edgeStyle=orthogonalEdgeStyle;rounded=0;orthogonalLoop=1;jettySize=auto;html=1;exitX=0.5;exitY=1;exitDx=0;exitDy=0;entryX=0;entryY=0.5;entryDx=0;entryDy=0;noEdgeStyle=1;orthogonal=1;" edge="1" parent="1" source="OTA7IhnV_E8W4GshgQvg-53" target="OTA7IhnV_E8W4GshgQvg-19">
          <mxGeometry relative="1" as="geometry">
            <Array as="points">
              <mxPoint x="272" y="490" />
              <mxPoint x="310" y="465" />
              <mxPoint x="490" y="465" />
              <mxPoint x="490" y="465" />
              <mxPoint x="670" y="465" />
              <mxPoint x="708" y="390" />
            </Array>
          </mxGeometry>
        </mxCell>
        <mxCell id="OTA7IhnV_E8W4GshgQvg-56" value="proves" style="edgeLabel;html=1;align=center;verticalAlign=middle;resizable=0;points=[];" vertex="1" connectable="0" parent="OTA7IhnV_E8W4GshgQvg-55">
          <mxGeometry x="-0.4094" y="1" relative="1" as="geometry">
            <mxPoint as="offset" />
          </mxGeometry>
        </mxCell>
        <mxCell id="OTA7IhnV_E8W4GshgQvg-53" value="Delta Proof" style="rounded=1;whiteSpace=wrap;html=1;" vertex="1" parent="1">
          <mxGeometry x="180" y="470" width="80" height="40" as="geometry" />
        </mxCell>
        <mxCell id="OTA7IhnV_E8W4GshgQvg-58" style="edgeStyle=orthogonalEdgeStyle;rounded=0;orthogonalLoop=1;jettySize=auto;html=1;exitX=0.5;exitY=1;exitDx=0;exitDy=0;entryX=0;entryY=0.25;entryDx=0;entryDy=0;noEdgeStyle=1;orthogonal=1;" edge="1" parent="1" source="OTA7IhnV_E8W4GshgQvg-57" target="OTA7IhnV_E8W4GshgQvg-4">
          <mxGeometry relative="1" as="geometry">
            <Array as="points">
              <mxPoint x="272" y="357.5" />
              <mxPoint x="310" y="335" />
              <mxPoint x="490" y="335" />
              <mxPoint x="526" y="260" />
            </Array>
          </mxGeometry>
        </mxCell>
        <mxCell id="OTA7IhnV_E8W4GshgQvg-59" value="proves" style="edgeLabel;html=1;align=center;verticalAlign=middle;resizable=0;points=[];" vertex="1" connectable="0" parent="OTA7IhnV_E8W4GshgQvg-58">
          <mxGeometry x="0.1467" y="3" relative="1" as="geometry">
            <mxPoint as="offset" />
          </mxGeometry>
        </mxCell>
        <mxCell id="OTA7IhnV_E8W4GshgQvg-60" style="edgeStyle=orthogonalEdgeStyle;rounded=0;orthogonalLoop=1;jettySize=auto;html=1;exitX=0.75;exitY=1;exitDx=0;exitDy=0;entryX=0;entryY=0.5;entryDx=0;entryDy=0;noEdgeStyle=1;orthogonal=1;" edge="1" parent="1" source="OTA7IhnV_E8W4GshgQvg-57" target="OTA7IhnV_E8W4GshgQvg-5">
          <mxGeometry relative="1" as="geometry">
            <Array as="points">
              <mxPoint x="272" y="342.5" />
              <mxPoint x="310" y="305" />
              <mxPoint x="490" y="305" />
              <mxPoint x="526" y="193.75" />
            </Array>
          </mxGeometry>
        </mxCell>
        <mxCell id="OTA7IhnV_E8W4GshgQvg-61" value="proves" style="edgeLabel;html=1;align=center;verticalAlign=middle;resizable=0;points=[];" vertex="1" connectable="0" parent="OTA7IhnV_E8W4GshgQvg-60">
          <mxGeometry x="0.125" y="-1" relative="1" as="geometry">
            <mxPoint as="offset" />
          </mxGeometry>
        </mxCell>
        <mxCell id="OTA7IhnV_E8W4GshgQvg-57" value="Compliance Proof" style="rounded=1;whiteSpace=wrap;html=1;" vertex="1" parent="1">
          <mxGeometry x="180" y="330" width="80" height="40" as="geometry" />
        </mxCell>
      </root>
    </mxGraphModel>
  </diagram>
</mxfile>
